Coordinates
version=1
nRows=17
nColumns=38
inDegrees=yes

Units are S.I. units (second, meters, Newtons, ...)
If the header above contains a line with 'inDegrees', this indicates whether rotational values are in degrees (yes) or radians (no).

endheader
time	pelvis_tilt	pelvis_list	pelvis_rotation	pelvis_tx	pelvis_ty	pelvis_tz	hip_flexion_r	hip_adduction_r	hip_rotation_r	knee_angle_r	ankle_angle_r	subtalar_angle_r	mtp_angle_r	hip_flexion_l	hip_adduction_l	hip_rotation_l	knee_angle_l	ankle_angle_l	subtalar_angle_l	mtp_angle_l	lumbar_extension	lumbar_bending	lumbar_rotation	arm_flex_r	arm_add_r	arm_rot_r	elbow_flex_r	pro_sup_r	wrist_flex_r	wrist_dev_r	arm_flex_l	arm_add_l	arm_rot_l	elbow_flex_l	pro_sup_l	wrist_flex_l	wrist_dev_l
      0.36000000	     -2.95312271	    -12.83878381	      5.06702640	     -2.58059860	      0.98524261	      0.16210702	     36.76297385	      7.51714296	    -27.32723533	    -33.15204761	      1.34642228	      8.99124863	      5.88036459	      9.04778113	    -16.47837403	      0.69026661	   -134.67703251	     -9.45183976	     -1.97697168	      4.90186645	    -17.54773580	     19.99996353	      0.65677195	    -29.30236970	    -35.92550392	     -1.43272520	     86.92850870	      3.11188816	      0.00000000	      0.00000000	      3.79669543	    -16.57669622	     17.07887706	     64.69499892	      0.00029264	      0.00000000	      0.00000000
      0.36400000	     -3.07701581	    -13.25161395	      3.95270905	     -2.54368566	      0.98312503	      0.16444112	     35.41599706	      9.03183288	    -26.78552828	    -34.35229902	      4.04006886	      8.05854868	     21.94225469	     11.98328654	    -16.95693253	      0.51269954	   -137.07994005	    -10.72546527	     -3.41304188	     30.37437650	    -17.92872754	     20.00023775	      2.61534727	    -26.41867012	    -36.18624986	      1.48685590	     86.65425447	     27.71444816	      0.00000000	      0.00000000	      3.48638144	    -16.29924924	     18.93009124	     58.30639398	      1.73497381	      0.00000000	      0.00000000
      0.36800000	     -3.55022940	    -13.77649891	      2.47504973	     -2.50665424	      0.98027733	      0.16706798	     34.32573496	     10.78347719	    -26.17562578	    -36.05666756	      8.67615312	      7.43658131	     21.15761504	     15.19683371	    -17.73080397	      0.07197566	   -139.43590933	     -9.78057943	     -3.63402547	     29.58848211	    -17.95990725	     20.00023775	      4.44370125	    -22.38203476	    -37.35877063	      3.65004928	     86.80149161	     28.90754024	      0.00000000	      0.00000000	      2.68591413	    -16.00747773	     19.97269288	     52.31374175	      1.83779929	      0.00000000	      0.00000000
      0.37200000	     -3.64095847	    -14.21323576	      1.38245015	     -2.46993884	      0.97786220	      0.16922732	     32.73300543	     12.37362563	    -25.23139417	    -37.66664291	     13.54018903	      6.73279571	     19.80541869	     18.31055750	    -18.34325616	      0.06546910	   -141.55614258	     -8.87809890	     -3.68364559	     28.67295688	    -18.38148577	     20.00023775	      5.98624322	    -18.13905604	    -38.43905805	      5.83350338	     87.13987778	     30.44152745	      0.00000000	      0.00000000	      1.94933870	    -15.86792924	     21.41489579	     46.60968797	      2.04510115	      0.00000000	      0.00000000
      0.37600000	     -3.50299836	    -14.74960240	      0.53148055	     -2.43273047	      0.97551065	      0.17163536	     30.80514705	     13.98767943	    -24.43643221	    -38.93024076	     17.92127677	      5.84346173	     19.34325502	     21.22003799	    -19.11554509	      0.52961819	   -143.28599001	     -8.09023815	     -3.71447476	     28.41235421	    -18.97866530	     20.00023775	      7.58285406	    -14.17938258	    -38.83563359	      6.84544163	     87.63135817	     31.06290974	      0.00000000	      0.00000000	      0.58381885	    -16.08999799	     22.20193999	     42.72027778	      2.16111332	      0.00000000	      0.00000000
      0.38000000	     -2.00838651	    -15.13361050	     -0.36331426	     -2.39653894	      0.97401306	      0.17378837	     27.61662468	     15.20491315	    -23.52881335	    -40.73860561	     22.24767649	      6.20443914	      2.05463148	     22.97485220	    -20.12620005	      0.47907010	   -144.84509286	     -7.11990421	     -3.22336921	     21.21691275	    -21.22839373	     19.70631967	      8.98202648	     -8.61498407	    -39.56761093	      8.97464174	     75.13737000	    143.65810315	      0.00000000	      0.00000000	     -3.24729295	    -16.54700204	     22.05736754	     28.34262723	    148.91340256	      0.00000000	      0.00000000
      0.38400000	     -1.72440085	    -15.26647203	     -1.69444155	     -2.35879289	      0.97234904	      0.17653878	     25.43431052	     16.22510578	    -21.87832767	    -42.32249351	     24.76807049	      5.62028461	      1.64396053	     25.62383175	    -20.67314203	      0.19068782	   -145.78500396	     -6.81563900	     -3.53187167	     20.86709264	    -21.89872220	     19.08297249	     10.61392913	     -3.87800298	    -40.21987438	     11.50111759	     75.52532189	    142.28057688	      0.00000000	      0.00000000	     -5.36267866	    -17.25121230	     22.93927035	     25.85590550	    149.84809953	      0.00000000	      0.00000000
      0.38800000	     -1.10967247	    -15.42651949	     -2.55228710	     -2.32112165	      0.97121135	      0.17909267	     22.76310165	     17.04157059	    -20.30169184	    -43.56080627	     26.89070588	      5.73117742	      1.46223369	     28.18164754	    -21.09837355	      0.44947655	   -146.49089466	     -6.19899450	     -3.52989341	     20.40983964	    -22.79413610	     18.54637749	     11.89783389	      0.83371555	    -40.54602359	     13.52408176	     76.02600699	    141.09667717	      0.00000000	      0.00000000	     -7.71135900	    -17.92275133	     22.66462185	     24.17474838	    150.34583437	      0.00000000	      0.00000000
      0.39200000	     -0.42991627	    -15.32973379	     -3.81015386	     -2.28260366	      0.97074546	      0.18178633	     19.56710882	     17.65002359	    -18.00405373	    -44.37944661	     28.68253035	      6.12227923	      1.53306028	     30.20881117	    -21.43131065	      0.18261021	   -146.60419859	     -5.57295870	     -3.33612236	     20.08667020	    -23.72531574	     17.60176227	     13.36645098	      5.48104378	    -40.69324021	     15.48141590	     76.45688908	    140.19604444	      0.00000000	      0.00000000	    -10.36037914	    -18.71088728	     22.56843824	     23.06247749	    150.75623819	      0.00000000	      0.00000000
      0.39600000	     -0.13685856	    -15.34735927	     -4.73489627	     -2.24552857	      0.96968120	      0.18509219	     16.73686089	     18.27102883	    -15.82993079	    -44.78960301	     29.92900365	      6.59363260	      1.78487274	     33.29412276	    -21.78107709	      0.82364058	   -146.68436794	     -5.12868656	     -2.80161377	     19.93218173	    -24.25954878	     16.78151988	     14.45135228	     10.19507511	    -40.51926734	     17.01128085	     77.03833417	    139.72976896	      0.00000000	      0.00000000	    -13.27092520	    -19.89086542	     22.57207259	     23.03349532	    151.07913286	      0.00000000	      0.00000000
      0.40000000	      0.18509255	    -15.04082033	     -5.66875179	     -2.20795848	      0.96934455	      0.18808728	     13.57946813	     18.43866380	    -13.41706384	    -44.81885292	     30.85780792	      6.85860611	      2.20823782	     36.02549812	    -21.70367210	      0.94579783	   -146.16929246	     -5.15286203	     -2.43300895	     20.12613405	    -24.69447475	     15.66466772	     15.34639034	     14.74516320	    -40.22804317	     18.46831703	     77.66804600	    139.31249295	      0.00000000	      0.00000000	    -16.34134092	    -21.09145034	     22.54376409	     23.28253557	    151.45245999	      0.00000000	      0.00000000
      0.40400000	      0.22929994	    -14.42189689	     -6.48385441	     -2.16942752	      0.96846665	      0.19005869	     10.50815721	     17.99217419	    -11.31279923	    -44.54473583	     31.77085639	      7.30905008	      3.27081918	     39.17814134	    -21.16237793	      1.00885918	   -145.55847310	     -4.87013901	     -3.03671535	     20.39009715	    -24.53467635	     14.45916478	     15.95761618	     18.80994493	    -39.98749609	     19.68261854	     78.52631648	    138.65297181	      0.00000000	      0.00000000	    -19.59836065	    -22.05623052	     21.86320270	     23.59627868	    152.00023905	      0.00000000	      0.00000000
      0.40800000	      0.26544151	    -13.27641001	     -7.37987629	     -2.13192699	      0.96804687	      0.19212463	      7.45395257	     16.86753406	     -9.13480319	    -44.01198781	     32.20698324	      8.08237456	      4.95660519	     42.09869678	    -20.00933151	      0.41268025	   -144.59771464	     -4.09880143	     -3.35814385	     20.69252227	    -24.40727028	     12.63134580	     16.49185035	     22.66288723	    -39.39772961	     20.08216262	     79.50937838	    138.00218777	      0.00000000	      0.00000000	    -22.89684707	    -23.12414397	     21.07948594	     24.33153353	    152.48598537	      0.00000000	      0.00000000
      0.41200000	     -0.00989502	    -12.35184040	     -7.97240208	     -2.09331337	      0.96709392	      0.19378341	      4.53036350	     15.78139702	     -7.56084138	    -42.97072053	     32.22349617	      9.08959368	      5.50122460	     45.38730607	    -18.93823132	      0.33357310	   -143.43019732	     -3.63262767	     -3.55962550	     20.84705000	    -23.74916418	     11.26553381	     16.79996948	     25.81446035	    -38.59969482	     19.60304859	     80.73091546	    137.93384900	      0.00000000	      0.00000000	    -26.40918246	    -24.47203018	     21.28487157	     25.47732550	    152.75182478	      0.00000000	      0.00000000
      0.41600000	      0.30725447	    -10.45023258	     -8.47416059	     -2.05467786	      0.96675322	      0.19484391	      1.18171683	     13.31559378	     -6.30963607	    -41.87584038	     32.02204861	     10.29748039	     11.40574833	     47.86721549	    -16.99819864	     -0.78476842	   -141.92089562	     -2.19434405	     -4.36738180	     24.69019727	    -23.45720900	      8.85980566	     16.84419961	     28.72772898	    -37.98499045	     19.28328159	     82.35304713	    137.20968896	      0.00000000	      0.00000000	    -29.88851642	    -26.02952381	     21.85919432	     26.83108743	    154.22809762	      0.00000000	      0.00000000
      0.42000000	     -0.45892314	     -9.09598224	     -9.07916663	     -2.01589906	      0.96499981	      0.19657600	     -1.14353410	     11.61812043	     -5.13688646	    -40.41082508	     31.04863277	     11.23022114	     12.02447082	     51.51928278	    -15.79814488	     -1.10427202	   -140.31976118	     -1.29108830	     -3.87746518	     24.57925942	    -22.01938936	      7.20075763	     17.04821496	     31.33545880	    -37.29622975	     18.69262068	     83.92855523	    137.32651742	      0.00000000	      0.00000000	    -33.84309550	    -27.43618661	     21.28223861	     28.82651099	    154.26137530	      0.00000000	      0.00000000
      0.42400000	     -0.82688655	     -6.36167613	     -9.28024740	     -1.97497371	      0.96385372	      0.19497899	     -3.70077652	      7.76707270	     -5.43372009	    -38.83970446	     30.03111584	     13.91426878	     14.29087043	     54.28238523	    -12.95054113	     -3.17963445	   -138.14532924	     -1.01225657	     -4.90524162	     23.23066686	    -20.45679715	      4.49789703	     16.67659397	     33.16103282	    -36.73814387	     17.45179371	     85.55450163	    137.58492246	      0.00000000	      0.00000000	    -37.57396332	    -28.29315192	     20.57161059	     29.86448569	    154.05018853	      0.00000000	      0.00000000
